<svg viewBox="0 0 1024 1024" xmlns="http://www.w3.org/2000/svg">
  <defs>
    <radialGradient id="benchGlow" cx="50%" cy="14%" r="85%">
      <stop offset="0%" stop-color="#ffffff" stop-opacity="0.20"></stop>
      <stop offset="55%" stop-color="#ffffff" stop-opacity="0.04"></stop>
      <stop offset="100%" stop-color="#ffffff" stop-opacity="0"></stop>
    </radialGradient>
    <linearGradient id="benchShade" x1="0" y1="0" x2="0" y2="1">
      <stop offset="0%" stop-color="#000000" stop-opacity="0"></stop>
      <stop offset="100%" stop-color="#000000" stop-opacity="0.16"></stop>
    </linearGradient>
    <clipPath id="round"><rect x="0" y="0" width="1024" height="1024" rx="224" ry="224"></rect></clipPath>
  </defs>
  <g clip-path="url(#round)">
    <rect x="0" y="0" width="1024" height="1024" fill="#0D0D0D"></rect>
    <rect x="0" y="0" width="1024" height="1024" fill="url(#benchGlow)"></rect>
    <rect x="0" y="0" width="1024" height="1024" fill="url(#benchShade)"></rect>
    <g fill="#000000" opacity="0.10">
      <ellipse cx="180" cy="726" rx="60" ry="13"></ellipse>
      <ellipse cx="362" cy="726" rx="135" ry="15"></ellipse>
      <ellipse cx="535" cy="726" rx="92" ry="14"></ellipse>
      <ellipse cx="712" cy="726" rx="100" ry="15"></ellipse>
      <ellipse cx="884" cy="726" rx="70" ry="13"></ellipse>
    </g>
    <g fill="none" stroke="#F6F1E8" stroke-width="13" stroke-linejoin="round" stroke-linecap="round">
      <path d="M152,562 L152,690 A28,28 0 0 0 208,690 L208,562 Z" fill="#DA6A4B" stroke="none"></path>
      <path d="M148,360 L148,690 A32,32 0 0 0 212,690 L212,360"></path>
      <line x1="136" y1="360" x2="224" y2="360"></line>
      <path d="M289,560 L250,718 L474,718 L435,560 Z" fill="#74A98A" stroke="none"></path>
      <path d="M327,300 L327,430 L247,718 L477,718 L397,430 L397,300"></path>
      <line x1="313" y1="300" x2="411" y2="300"></line>
      <path d="M440,648 A96,96 0 0 0 621,648 Z" fill="#5E8AB4" stroke="none"></path>
      <path d="M502,290 L502,524 A96,96 0 1 0 558,524 L558,290"></path>
      <line x1="489" y1="290" x2="571" y2="290"></line>
      <ellipse cx="530" cy="710" rx="54" ry="13" stroke-width="12"></ellipse>
      <path d="M635,584 L635,706 Q635,718 647,718 L777,718 Q789,718 789,706 L789,584 Z" fill="#E0A352" stroke="none"></path>
      <path d="M627,470 L627,704 Q627,718 641,718 L783,718 Q797,718 797,704 L797,470"></path>
      <path d="M627,470 L606,458"></path>
      <line x1="615" y1="470" x2="797" y2="470"></line>
      <path d="M853,500 L853,706 L915,706 L915,500 Z" fill="#B96C92" stroke="none"></path>
      <path d="M849,330 L849,704 L919,704 L919,330"></path>
      <path d="M849,330 L831,320"></path>
      <line x1="837" y1="330" x2="931" y2="330"></line>
      <path d="M819,712 L949,712" stroke-width="15"></path>
    </g>
    <rect x="58" y="722" width="908" height="74" rx="20" fill="#C96442"></rect>
    <rect x="58" y="722" width="908" height="20" rx="10" fill="#ffffff" opacity="0.07"></rect>
  </g>
</svg>
